# xmcd
#
# Track frame offsets: 
#        150
#        10972
#        26405
#        43582
#        63682
#        79230
#        96992
#        110492
#        127090
#        141842
#        159507
#        175262
#        200237
#        213012
#        226832
#
# Disc length: 3239 seconds
#
# Revision: 1
# Processed by: cddbd v1.5.1PL0 Copyright (c) Steve Scherf et al.
# Submitted via: ExactAudioCopy v0.95b2
#
DISCID=d20ca50f
DTITLE=Various Artist - Country World
DYEAR=2002
DGENRE=Country
TTITLE0=Dwight Yokam - Crazy Little Thing Called Love
TTITLE1=Forester Sisters - Men
TTITLE2=Claudia Church - Whats The Matter With You Baby
TTITLE3=Rodney Crowell - Elvira
TTITLE4=George Jones - Choices
TTITLE5=Linda Ronstadt - Blue Bayou
TTITLE6=Guy Clark - Home Grown Tomatoes
TTITLE7=Paul Brandt - I Do
TTITLE8=Chris Cummings - I Waited
TTITLE9=Emmylou Harris - Together Again
TTITLE10=Willie Nelson - Bloody Mary Morning
TTITLE11=Gram Parsons - Love Hurts
TTITLE12=Jerry Lee Lewis - Everyday I Have To Cry
TTITLE13=Travis Tritt - Trouble
TTITLE14=Randy Travis - Forever and Ever Amen
EXTD=
EXTT0=
EXTT1=
EXTT2=
EXTT3=
EXTT4=
EXTT5=
EXTT6=
EXTT7=
EXTT8=
EXTT9=
EXTT10=
EXTT11=
EXTT12=
EXTT13=
EXTT14=
PLAYORDER=
